

<svg xmlns="http://www.w3.org/2000/svg" xmlns:xlink="http://www.w3.org/1999/xlink" version="1.1" width="750" height="750" viewBox="0 0 1080 1080" xml:space="preserve">
<desc>Created with Fabric.js 5.2.4</desc>
<defs>
</defs>
<g transform="matrix(1 0 0 1 540 540)" id="2737216d-9f43-4224-b953-06ba7bc0dcf7"  >
<rect style="stroke: none; stroke-width: 1; stroke-dasharray: none; stroke-linecap: butt; stroke-dashoffset: 0; stroke-linejoin: miter; stroke-miterlimit: 4; fill: rgb(255,255,255); fill-rule: nonzero; opacity: 1; visibility: hidden;" vector-effect="non-scaling-stroke"  x="-540" y="-540" rx="0" ry="0" width="1080" height="1080" />
</g>
<g transform="matrix(1 0 0 1 540 540)" id="2ba1e04a-1074-4d9f-815d-e2fe61a2a96a"  >
</g>
<g transform="matrix(14.4 0 0 14.4 540 540)"  >
<g style="opacity: 1;"   >
		<g transform="matrix(1 0 0 1 0 -21.05)"  >
<path style="stroke: none; stroke-width: 1; stroke-dasharray: none; stroke-linecap: butt; stroke-dashoffset: 0; stroke-linejoin: miter; stroke-miterlimit: 4; fill: rgb(23,23,27); fill-rule: nonzero; opacity: 1;" vector-effect="non-scaling-stroke"  transform=" translate(-37.5, -16.45)" d="M 37.5 0 C 56.798 0 72.7167 14.361 75 32.9032 L 56.6974 32.9032 C 54.6135 24.298 46.8091 17.9032 37.5 17.9032 C 28.1909 17.9032 20.3865 24.298 18.3026 32.9032 L 0 32.9032 C 2.28333 14.361 18.202 0 37.5 0 Z" stroke-linecap="round" />
</g>
		<g transform="matrix(1 0 0 1 0 21.05)"  >
<path style="stroke: none; stroke-width: 1; stroke-dasharray: none; stroke-linecap: butt; stroke-dashoffset: 0; stroke-linejoin: miter; stroke-miterlimit: 4; fill: rgb(23,23,27); fill-rule: nonzero; opacity: 1;" vector-effect="non-scaling-stroke"  transform=" translate(-37.5, -58.55)" d="M 56.6974 42.0968 L 75 42.0968 C 72.7167 60.639 56.798 75 37.5 75 C 18.202 75 2.28333 60.639 0 42.0968 L 18.3026 42.0968 C 20.3865 50.702 28.1909 57.0968 37.5 57.0968 C 46.8091 57.0968 54.6135 50.702 56.6974 42.0968 Z" stroke-linecap="round" />
</g>
		<g transform="matrix(1 0 0 1 0 0)"  >
<path style="stroke: none; stroke-width: 1; stroke-dasharray: none; stroke-linecap: butt; stroke-dashoffset: 0; stroke-linejoin: miter; stroke-miterlimit: 4; fill: rgb(23,23,27); fill-rule: nonzero; opacity: 1;" vector-effect="non-scaling-stroke"  transform=" translate(-37.5, -37.5)" d="M 37.5 49.8387 C 44.3655 49.8387 49.9312 44.3145 49.9312 37.5 C 49.9312 30.6855 44.3655 25.1613 37.5 25.1613 C 30.6345 25.1613 25.0688 30.6855 25.0688 37.5 C 25.0688 44.3145 30.6345 49.8387 37.5 49.8387 Z" stroke-linecap="round" />
</g>
</g>
</g>
</svg>